<svg width="428" height="512" viewBox="0 0 428 512" fill="none" xmlns="http://www.w3.org/2000/svg">
<path d="M256.667 149.653V10.112C276.144 17.4933 294.064 28.864 309.253 44.032L383.579 118.4C398.768 133.568 410.139 151.488 417.52 170.965H278C266.224 170.965 256.667 180.565 256.667 149.653ZM426.821 213.653H278C242.715 213.653 214 184.939 214 149.653V0.810645C210.565 0.575978 207.131 0.298645 203.653 0.298645H107.333C48.5174 0.319978 0.666687 48.1706 0.666687 106.987V405.653C0.666687 464.469 48.5174 512.32 107.333 512.32H320.667C379.483 512.32 427.333 464.469 427.333 405.653V224C427.333 220.523 427.056 217.088 426.821 213.653ZM293.083 395.115L258.672 429.547C246.363 441.856 230.171 448.021 214 448.021C197.829 448.021 181.637 441.856 169.328 429.547L134.917 395.115C126.576 386.773 126.576 373.269 134.917 364.949C143.259 356.608 156.741 356.608 165.083 364.949L192.667 392.533V298.709C192.667 286.933 202.203 277.376 214 277.376C225.797 277.376 235.333 286.933 235.333 298.709V392.533L262.917 364.949C271.259 356.608 284.741 356.608 293.083 364.949C301.424 373.269 301.424 386.773 293.083 395.115Z" fill="white"/>
</svg>
