<svg width="512" height="491" viewBox="0 0 512 491" fill="none" xmlns="http://www.w3.org/2000/svg">
<path d="M459.093 484.813L493.44 450.467C505.813 438.093 512 421.88 512 405.88C512 389.88 505.813 373.453 493.44 361.293L459.093 326.947C450.773 318.627 437.333 318.627 429.013 326.947C420.693 335.267 420.693 348.707 429.013 357.027L456.533 384.547H298.667C286.933 384.547 277.333 394.147 277.333 405.88C277.333 417.613 286.933 427.213 298.667 427.213H456.533L429.013 454.733C420.693 463.053 420.693 476.493 429.013 484.813C437.333 493.133 450.773 493.133 459.093 484.813ZM298.667 469.667H106.667C47.7867 469.667 -7.62939e-06 421.88 -7.62939e-06 363V171H512V319.053L489.387 296.44C464.427 271.48 423.893 271.48 398.933 296.44C386.773 308.6 380.16 324.6 380.16 341.667H298.88C263.68 341.667 234.88 370.467 234.88 405.667C234.88 440.867 263.68 469.667 298.88 469.667H298.667ZM509.867 128.333H-7.62939e-06V107C-7.62939e-06 48.12 47.7867 0.333313 106.667 0.333313H160.64C170.453 0.333313 180.48 2.67998 189.227 7.15998L256.64 40.8666C259.627 42.36 262.827 43.2133 266.24 43.2133H405.547C456.96 43.2133 500.053 79.9067 510.08 128.547L509.867 128.333Z" fill="white"/>
</svg>
